<svg width="69" height="49" viewBox="0 0 69 49" fill="none" xmlns="http://www.w3.org/2000/svg">
<g clip-path="url(#clip0_2015_177)">
<path d="M67.02 8.61988C66.24 5.68988 64.53 3.20988 61.6 2.42988C56.29 1.00988 34.5 0.879883 34.5 0.879883C34.5 0.879883 12.71 1.00988 7.4 2.42988C4.47 3.20988 2.77 5.68988 1.98 8.61988C0.56 13.9299 0.5 24.8799 0.5 24.8799C0.5 24.8799 0.56 35.8299 1.98 41.1399C2.76 44.0699 4.47 46.5499 7.4 47.3299C12.71 48.7499 34.5 48.8799 34.5 48.8799C34.5 48.8799 56.29 48.7499 61.6 47.3299C64.53 46.5499 66.24 44.0699 67.02 41.1399C68.44 35.8299 68.5 24.8799 68.5 24.8799C68.5 24.8799 68.44 13.9299 67.02 8.61988Z" fill="#FF0000"/>
<path d="M45.5 24.8799L27.5 14.8799V34.8799" fill="white"/>
</g>
<defs>
<clipPath id="clip0_2015_177">
<rect width="68" height="48" fill="white" transform="translate(0.5 0.879883)"/>
</clipPath>
</defs>
</svg>
