<svg width="54" height="55" viewBox="0 0 54 55" fill="none" xmlns="http://www.w3.org/2000/svg">
<g clip-path="url(#clip0_2015_1235)">
<path d="M22.1252 25.6338V37.6045C22.1252 38.167 22.323 38.6416 22.7185 39.0283C23.114 39.415 23.5842 39.6084 24.1292 39.6084H38.1038L42.0852 43.6162V25.6338C42.0852 25.0889 41.8918 24.6187 41.5051 24.2231C41.1184 23.8276 40.6526 23.6299 40.1077 23.6299H24.1292C23.5842 23.6299 23.114 23.8276 22.7185 24.2231C22.323 24.6187 22.1252 25.0889 22.1252 25.6338ZM35.2297 30.6436H36.9963V32.4102H35.2297V30.6436ZM31.2219 30.6436H32.9885V32.4102H31.2219V30.6436ZM27.2405 30.6436H29.0071V32.4102H27.2405V30.6436ZM20.8069 25.6338C20.8069 24.7197 21.1321 23.9375 21.7825 23.2871C22.4329 22.6367 23.2151 22.3115 24.1292 22.3115H31.8547V18.5938C31.8547 18.0488 31.6614 17.5786 31.2747 17.1831C30.8879 16.7876 30.4133 16.5898 29.8508 16.5898H13.8987C13.3362 16.6074 12.8616 16.8096 12.4749 17.1963C12.0881 17.583 11.8948 18.0488 11.8948 18.5938V36.5762L15.8762 32.5684H20.8069V25.6338Z" fill="white"/>
</g>
<defs>
<clipPath id="clip0_2015_1235">
<rect width="30.2" height="27" fill="white" transform="matrix(1 0 0 -1 11.8899 43.5898)"/>
</clipPath>
</defs>
</svg>
