<svg width="28" height="25" viewBox="0 0 28 25" fill="none" xmlns="http://www.w3.org/2000/svg">
<path d="M11.66 23.97C12.7646 23.97 13.66 23.0745 13.66 21.97C13.66 20.8654 12.7646 19.97 11.66 19.97C10.5555 19.97 9.66003 20.8654 9.66003 21.97C9.66003 23.0745 10.5555 23.97 11.66 23.97Z" stroke="#08B85A" stroke-width="2" stroke-linecap="square"/>
<path d="M22.66 23.97C23.7646 23.97 24.66 23.0745 24.66 21.97C24.66 20.8654 23.7646 19.97 22.66 19.97C21.5555 19.97 20.66 20.8654 20.66 21.97C20.66 23.0745 21.5555 23.97 22.66 23.97Z" stroke="#08B85A" stroke-width="2" stroke-linecap="square"/>
<path d="M7.97003 6.96997H26.24L24.8 16.97H10.44L6.88003 1.96997H0.660034" stroke="#08B85A" stroke-width="2"/>
</svg>
