<svg width="30" height="31" viewBox="0 0 30 31" fill="none" xmlns="http://www.w3.org/2000/svg">
<g clip-path="url(#clip0_2015_1118)">
<path d="M11.8187 22.9375L7.765 24.68C6.84625 25.075 6.25 25.9787 6.25 26.9787V29.08H23.75V26.9787C23.75 25.9787 23.1538 25.075 22.235 24.6813L18.1712 22.9462" stroke="#484848" stroke-width="1.875"/>
<path d="M15 6.58008C16.3807 6.58008 17.5 5.46079 17.5 4.08008C17.5 2.69937 16.3807 1.58008 15 1.58008C13.6193 1.58008 12.5 2.69937 12.5 4.08008C12.5 5.46079 13.6193 6.58008 15 6.58008Z" stroke="#08B85A" stroke-width="1.875" stroke-linecap="square"/>
<path d="M26.25 12.8301C27.6307 12.8301 28.75 11.7108 28.75 10.3301C28.75 8.94937 27.6307 7.83008 26.25 7.83008C24.8693 7.83008 23.75 8.94937 23.75 10.3301C23.75 11.7108 24.8693 12.8301 26.25 12.8301Z" stroke="#08B85A" stroke-width="1.875" stroke-linecap="square"/>
<path d="M3.75 12.8301C5.13071 12.8301 6.25 11.7108 6.25 10.3301C6.25 8.94937 5.13071 7.83008 3.75 7.83008C2.36929 7.83008 1.25 8.94937 1.25 10.3301C1.25 11.7108 2.36929 12.8301 3.75 12.8301Z" stroke="#08B85A" stroke-width="1.875" stroke-linecap="square"/>
<path fill-rule="evenodd" clip-rule="evenodd" d="M15 24.0801C12.2387 24.0801 10 21.8413 10 19.0801V17.8301C10 15.0688 12.2387 12.8301 15 12.8301C17.7613 12.8301 20 15.0688 20 17.8301V19.0801C20 21.8413 17.7613 24.0801 15 24.0801Z" stroke="#484848" stroke-width="1.875" stroke-linecap="square"/>
</g>
<defs>
<clipPath id="clip0_2015_1118">
<rect width="30" height="30" fill="white" transform="translate(0 0.330078)"/>
</clipPath>
</defs>
</svg>
