<svg width="11" height="11" viewBox="0 0 11 11" fill="none" xmlns="http://www.w3.org/2000/svg">
<path fill-rule="evenodd" clip-rule="evenodd" d="M8.52792 7.83066L10.9399 10.2426L10.2327 10.9498L7.82081 8.53782C7.09717 9.10899 6.18334 9.44986 5.18991 9.44986C2.84272 9.44986 0.939941 7.54699 0.939941 5.19976C0.939941 2.85253 2.84272 0.949951 5.18991 0.949951C7.53709 0.949951 9.43987 2.85253 9.43987 5.19976C9.43987 6.19318 9.09903 7.10701 8.52792 7.83066ZM5.18991 1.94982C3.39497 1.94982 1.9399 3.40477 1.9399 5.19976C1.9399 6.99475 3.39497 8.4497 5.18991 8.4497C6.98483 8.4497 8.43991 6.99475 8.43991 5.19976C8.43991 3.40477 6.98483 1.94982 5.18991 1.94982Z" fill="#4D4D4D"/>
</svg>
