<svg width="14" height="31" viewBox="0 0 14 31" fill="none" xmlns="http://www.w3.org/2000/svg">
<g clip-path="url(#clip0_2015_288)">
<path d="M6.51527 17.4903L7.36568 16.6392L6.26141 15.5468L5.4237 16.3852V16.7916H6.1091V17.4903H6.51527ZM9.71382 12.2569C9.67998 12.223 9.63978 12.2082 9.59324 12.2124C9.5467 12.2166 9.50651 12.2357 9.47266 12.2696L6.93413 14.8101C6.90028 14.8439 6.88336 14.8842 6.88336 14.9307C6.88336 14.9773 6.89605 15.0175 6.92143 15.0514C6.95528 15.0853 6.99547 15.1001 7.04201 15.0959C7.08855 15.0916 7.12875 15.0726 7.16259 15.0387L9.70113 12.4982C9.73498 12.4643 9.75402 12.4241 9.75825 12.3775C9.76248 12.331 9.74767 12.2907 9.71382 12.2569ZM10.2977 16.5757V17.9476C10.2977 18.5234 10.0925 19.0167 9.68209 19.4274C9.2717 19.8381 8.7788 20.0435 8.20339 20.0435H2.17437C1.59051 20.0435 1.09549 19.8381 0.689327 19.4274C0.283161 19.0167 0.0800781 18.5234 0.0800781 17.9476V11.9139C0.0800781 11.3381 0.283161 10.8448 0.689327 10.4341C1.09549 10.0234 1.59051 9.81799 2.17437 9.81799H8.20339C8.34725 9.81799 8.4911 9.83281 8.63495 9.86245C8.7788 9.89209 8.91842 9.94078 9.0538 10.0085C9.08765 10.017 9.11515 10.0361 9.13631 10.0657C9.15746 10.0953 9.17227 10.1313 9.18073 10.1737C9.18919 10.2075 9.18708 10.2435 9.17439 10.2816C9.16169 10.3197 9.14265 10.3515 9.11727 10.3769L8.76187 10.7326C8.72803 10.7664 8.68995 10.7897 8.64764 10.8024C8.60533 10.8151 8.56725 10.813 8.5334 10.7961C8.47417 10.7791 8.41706 10.7664 8.36205 10.758C8.30705 10.7495 8.25417 10.7453 8.20339 10.7453H2.17437C1.85282 10.7453 1.57781 10.8596 1.34935 11.0882C1.12088 11.3169 1.00664 11.5921 1.00664 11.9139V17.9476C1.00664 18.2693 1.12088 18.5446 1.34935 18.7732C1.57781 19.0019 1.85282 19.1162 2.17437 19.1162H8.20339C8.52494 19.1162 8.79784 19.0019 9.02207 18.7732C9.24631 18.5446 9.35843 18.2693 9.35843 17.9476V17.033C9.35843 17.0076 9.36478 16.9801 9.37747 16.9504C9.39016 16.9208 9.4092 16.8975 9.43458 16.8805L9.89152 16.4106C9.92537 16.3767 9.96556 16.3555 10.0121 16.347C10.0586 16.3386 10.1031 16.3428 10.1454 16.3598C10.1877 16.3767 10.2236 16.4042 10.2533 16.4423C10.2829 16.4804 10.2977 16.5249 10.2977 16.5757ZM9.59959 11.2153L11.6812 13.3112L6.8072 18.1889H4.7256V16.093L9.59959 11.2153ZM12.8108 12.1679L12.1508 12.8412L10.0565 10.7453L10.7292 10.0847C10.8646 9.94925 11.0296 9.88151 11.2243 9.88151C11.4189 9.88151 11.5839 9.94925 11.7193 10.0847L12.8108 11.1899C12.9462 11.3254 13.0139 11.4905 13.0139 11.6853C13.0139 11.88 12.9462 12.0409 12.8108 12.1679Z" fill="black"/>
</g>
<defs>
<clipPath id="clip0_2015_288">
<rect width="13.01" height="30" fill="white" transform="matrix(1 0 0 -1 0.0800781 30.28)"/>
</clipPath>
</defs>
</svg>
