<svg width="80" height="18" viewBox="0 0 80 18" fill="none" xmlns="http://www.w3.org/2000/svg">
<path d="M8.39511 12.7972L4.06641 15.4207L5.21417 10.5017L1.41016 7.18956L6.42752 6.76325L8.39511 2.1394L10.3627 6.76325L15.3801 7.18956L11.5761 10.5017L12.7238 15.4207L8.39511 12.7972Z" fill="#777777"/>
<path d="M24.1974 12.7972L19.8687 15.4207L21.0164 10.5017L17.2124 7.18956L22.2298 6.76325L24.1974 2.1394L26.1649 6.76325L31.1823 7.18956L27.3783 10.5017L28.5261 15.4207L24.1974 12.7972Z" fill="#777777"/>
<path d="M40.0001 12.7972L35.6714 15.4207L36.8191 10.5017L33.0151 7.18956L38.0325 6.76325L40.0001 2.1394L41.9677 6.76325L46.985 7.18956L43.181 10.5017L44.3288 15.4207L40.0001 12.7972Z" fill="#777777"/>
<path d="M55.8023 12.7972L51.4736 15.4207L52.6214 10.5017L48.8174 7.18956L53.8347 6.76325L55.8023 2.1394L57.7699 6.76325L62.7873 7.18956L58.9833 10.5017L60.131 15.4207L55.8023 12.7972Z" fill="#777777"/>
<path d="M71.6051 11.5183L74.2285 13.0923L73.5399 10.1082L75.8682 8.07498L72.7856 7.81263L71.6051 4.99241L70.4245 7.81263L67.342 8.07498L69.6703 10.1082L68.9816 13.0923L71.6051 11.5183ZM78.59 7.18956L74.786 10.5017L75.9338 15.4207L71.6051 12.7972L67.2764 15.4207L68.4241 10.5017L64.6201 7.18956L69.6375 6.76325L71.6051 2.1394L73.5727 6.76325L78.59 7.18956Z" fill="#777777"/>
</svg>
