<svg width="12" height="13" viewBox="0 0 12 13" fill="none" xmlns="http://www.w3.org/2000/svg">
<g clip-path="url(#clip0_2015_355)">
<path d="M2.16541 9.69531C2.16541 9.57812 2.12439 9.47852 2.04236 9.39648C1.96033 9.31445 1.86072 9.27344 1.74353 9.27344C1.61853 9.27344 1.51501 9.31445 1.43298 9.39648C1.35095 9.47852 1.30994 9.57812 1.30994 9.69531C1.30994 9.82031 1.35095 9.92383 1.43298 10.0059C1.51501 10.0879 1.61853 10.1289 1.74353 10.1289C1.86072 10.1289 1.96033 10.0879 2.04236 10.0059C2.12439 9.92383 2.16541 9.82031 2.16541 9.69531ZM3.24353 6.27344V10.5508C3.24353 10.668 3.20056 10.7695 3.11462 10.8555C3.02869 10.9414 2.92712 10.9844 2.80994 10.9844H0.888062C0.770874 10.9844 0.669312 10.9414 0.583374 10.8555C0.497437 10.7695 0.454468 10.668 0.454468 10.5508V6.27344C0.454468 6.15625 0.497437 6.05469 0.583374 5.96875C0.669312 5.88281 0.770874 5.83984 0.888062 5.83984H2.80994C2.92712 5.83984 3.02869 5.88281 3.11462 5.96875C3.20056 6.05469 3.24353 6.15625 3.24353 6.27344ZM11.1654 6.27344C11.1654 6.44531 11.1322 6.62109 11.0658 6.80078C10.9994 6.98047 10.9115 7.13672 10.8021 7.26953C10.8412 7.37109 10.8666 7.46875 10.8783 7.5625C10.89 7.65625 10.8959 7.72656 10.8959 7.77344C10.9037 7.94531 10.8842 8.10742 10.8373 8.25977C10.7904 8.41211 10.7162 8.55469 10.6146 8.6875C10.6537 8.8125 10.6732 8.94141 10.6732 9.07422C10.6732 9.20703 10.6537 9.33984 10.6146 9.47266C10.5834 9.59766 10.5365 9.71484 10.474 9.82422C10.4115 9.93359 10.3373 10.0273 10.2513 10.1055C10.2748 10.3555 10.2572 10.582 10.1986 10.7852C10.14 10.9883 10.0482 11.1641 9.92322 11.3125C9.78259 11.4844 9.60095 11.6152 9.3783 11.7051C9.15564 11.7949 8.89587 11.8398 8.599 11.8398H7.74353C7.25916 11.8398 6.79626 11.7773 6.35486 11.6523C5.91345 11.5273 5.51306 11.4023 5.15369 11.2773C4.94275 11.207 4.74353 11.1406 4.55603 11.0781C4.36853 11.0156 4.21619 10.9844 4.099 10.9844C3.98181 10.9766 3.88025 10.9316 3.79431 10.8496C3.70837 10.7676 3.66541 10.668 3.66541 10.5508V6.26172C3.66541 6.15234 3.70642 6.05664 3.78845 5.97461C3.87048 5.89258 3.96619 5.84375 4.07556 5.82812C4.20056 5.82031 4.39197 5.66602 4.64978 5.36523C4.90759 5.06445 5.11072 4.82031 5.25916 4.63281C5.38416 4.47656 5.5033 4.32812 5.61658 4.1875C5.72986 4.04688 5.83728 3.92578 5.93884 3.82422C6.07166 3.69141 6.16345 3.53125 6.21423 3.34375C6.26501 3.15625 6.30994 2.96484 6.349 2.76953C6.38806 2.57422 6.43689 2.37891 6.49548 2.18359C6.55408 1.98828 6.65369 1.82031 6.79431 1.67969C6.83337 1.64062 6.88025 1.60938 6.93494 1.58594C6.98962 1.5625 7.04431 1.55078 7.099 1.55078C7.849 1.55078 8.2865 1.77344 8.4115 2.21875C8.5365 2.66406 8.599 3.01562 8.599 3.27344C8.599 3.54688 8.55798 3.78516 8.47595 3.98828C8.39392 4.19141 8.30994 4.37891 8.224 4.55078C8.18494 4.62891 8.14978 4.69336 8.11853 4.74414C8.08728 4.79492 8.05603 4.875 8.02478 4.98438H9.88806C10.2318 4.98438 10.5306 5.11133 10.7845 5.36523C11.0385 5.61914 11.1654 5.92188 11.1654 6.27344Z" fill="black"/>
</g>
<defs>
<clipPath id="clip0_2015_355">
<rect width="10.72" height="12" fill="white" transform="matrix(1 0 0 -1 0.449951 12.5898)"/>
</clipPath>
</defs>
</svg>
