<svg width="21" height="19" viewBox="0 0 21 19" fill="none" xmlns="http://www.w3.org/2000/svg">
<path d="M8.98828 13.1606L15 7.14893L13.9453 6.09424L8.98828 11.0161L7.05469 9.08252L6 10.1372L8.98828 13.1606ZM10.5 1.13721L17.25 4.16064V8.66064C17.25 9.70361 17.0801 10.7114 16.7402 11.6841C16.4004 12.6685 15.9287 13.562 15.3252 14.3647C14.7217 15.1675 14.0098 15.8618 13.1895 16.4478C12.3691 17.022 11.4727 17.4263 10.5 17.6606C9.53906 17.4263 8.64258 17.022 7.81055 16.4478C6.99023 15.8618 6.27832 15.1675 5.6748 14.3647C5.07129 13.562 4.59961 12.6685 4.25977 11.6841C3.91992 10.7114 3.75 9.70361 3.75 8.66064V4.16064L10.5 1.13721Z" fill="#1CC286"/>
</svg>
