<svg width="14" height="31" viewBox="0 0 14 31" fill="none" xmlns="http://www.w3.org/2000/svg">
<g clip-path="url(#clip0_2015_292)">
<path d="M5.24365 11.6873C4.6766 11.6873 4.14339 11.7593 3.64404 11.9032C3.13623 12.0555 2.69189 12.2586 2.31104 12.5125C1.93018 12.7664 1.62972 13.0627 1.40967 13.4012C1.18115 13.7313 1.06689 14.0868 1.06689 14.4676C1.06689 14.8654 1.19596 15.2484 1.4541 15.6165C1.71224 15.9847 2.07406 16.3042 2.53955 16.575L3.23779 16.9813L2.98389 17.5907C3.06006 17.5483 3.13623 17.5018 3.2124 17.451C3.28857 17.4002 3.36051 17.3494 3.42822 17.2987L3.7583 17.0828L4.13916 17.1463C4.31689 17.1802 4.49886 17.2056 4.68506 17.2225C4.87126 17.2394 5.05745 17.2479 5.24365 17.2479C5.81071 17.2479 6.34814 17.1759 6.85596 17.0321C7.36377 16.8797 7.80811 16.6766 8.18896 16.4227C8.56982 16.1688 8.87028 15.8726 9.09033 15.534C9.31038 15.2039 9.42041 14.8485 9.42041 14.4676C9.42041 14.0868 9.31038 13.7313 9.09033 13.4012C8.87028 13.0627 8.56982 12.7664 8.18896 12.5125C7.80811 12.2586 7.36377 12.0555 6.85596 11.9032C6.34814 11.7593 5.81071 11.6873 5.24365 11.6873ZM5.24365 10.7479C5.95459 10.7479 6.61898 10.8452 7.23682 11.0399C7.85465 11.2345 8.39421 11.5011 8.85547 11.8397C9.31673 12.1782 9.68278 12.5718 9.95361 13.0203C10.2244 13.4689 10.3599 13.9513 10.3599 14.4676C10.3599 14.9839 10.2244 15.4663 9.95361 15.9149C9.68278 16.3634 9.31673 16.757 8.85547 17.0955C8.39421 17.4341 7.85465 17.7007 7.23682 17.8953C6.61898 18.09 5.95459 18.1873 5.24365 18.1873C5.0236 18.1873 4.80778 18.1768 4.59619 18.1556C4.3846 18.1344 4.17725 18.1027 3.97412 18.0604C3.66943 18.2804 3.34782 18.4666 3.00928 18.619C2.67074 18.7713 2.3195 18.8983 1.95557 18.9998C1.854 19.0252 1.75244 19.0464 1.65088 19.0633C1.54932 19.0802 1.44352 19.0972 1.3335 19.1141H1.30811C1.25732 19.1141 1.20866 19.0929 1.16211 19.0506C1.11556 19.0083 1.08805 18.9575 1.07959 18.8983C1.06266 18.8306 1.07113 18.7734 1.10498 18.7269C1.13883 18.6803 1.17692 18.6317 1.21924 18.5809C1.36312 18.4201 1.50911 18.255 1.65723 18.0858C1.80534 17.9165 1.94287 17.6795 2.06982 17.3748C1.48584 17.0363 1.01823 16.6131 0.666992 16.1053C0.315755 15.5975 0.140137 15.0516 0.140137 14.4676C0.140137 13.9513 0.275553 13.4689 0.546387 13.0203C0.808757 12.5718 1.17057 12.1782 1.63184 11.8397C2.0931 11.5011 2.63688 11.2345 3.26318 11.0399C3.88102 10.8452 4.54118 10.7479 5.24365 10.7479ZM11.2104 19.2284C11.3374 19.533 11.4749 19.77 11.623 19.9393C11.7712 20.1086 11.9172 20.2736 12.061 20.4344C12.1034 20.4852 12.1414 20.5339 12.1753 20.5804C12.2091 20.627 12.2176 20.6841 12.2007 20.7518C12.1922 20.8195 12.1626 20.8745 12.1118 20.9168C12.061 20.9591 12.006 20.9761 11.9468 20.9676C11.8368 20.9507 11.731 20.9338 11.6294 20.9168C11.5278 20.8999 11.4263 20.8787 11.3247 20.8534C10.9608 20.7603 10.6095 20.6354 10.271 20.4788C9.93245 20.3223 9.61084 20.1382 9.30615 19.9266C9.10303 19.9604 8.89567 19.988 8.68408 20.0091C8.47249 20.0303 8.25667 20.0409 8.03662 20.0409C7.37646 20.0409 6.75439 19.9562 6.17041 19.7869C5.58643 19.6177 5.06592 19.3807 4.60889 19.076C4.71045 19.0845 4.81624 19.0929 4.92627 19.1014C5.0363 19.1099 5.14209 19.1141 5.24365 19.1141C5.63298 19.1141 6.01807 19.0845 6.39893 19.0252C6.77132 18.9744 7.13314 18.894 7.48438 18.784C7.83561 18.674 8.17204 18.5428 8.49365 18.3905C8.82373 18.2297 9.12842 18.0477 9.40771 17.8446C10.0086 17.4045 10.472 16.8945 10.7979 16.3148C11.1237 15.735 11.2866 15.1193 11.2866 14.4676C11.2866 14.2814 11.2718 14.0952 11.2422 13.909C11.2126 13.7228 11.1724 13.5409 11.1216 13.3631C11.731 13.7017 12.2197 14.1291 12.5879 14.6453C12.9561 15.1616 13.1401 15.7202 13.1401 16.3211C13.1401 16.9136 12.9645 17.4616 12.6133 17.9652C12.262 18.4688 11.7944 18.8898 11.2104 19.2284Z" fill="black"/>
</g>
<defs>
<clipPath id="clip0_2015_292">
<rect width="13" height="30" fill="white" transform="matrix(1 0 0 -1 0.140137 30.28)"/>
</clipPath>
</defs>
</svg>
