<svg width="12" height="13" viewBox="0 0 12 13" fill="none" xmlns="http://www.w3.org/2000/svg">
<g clip-path="url(#clip0_2015_359)">
<path d="M2.62537 4.55078C2.62537 4.66797 2.58435 4.76953 2.50232 4.85547C2.42029 4.94141 2.32068 4.98438 2.20349 4.98438C2.07849 4.98438 1.97498 4.94141 1.89294 4.85547C1.81091 4.76953 1.7699 4.66797 1.7699 4.55078C1.7699 4.43359 1.81091 4.33398 1.89294 4.25195C1.97498 4.16992 2.07849 4.12891 2.20349 4.12891C2.32068 4.12891 2.42029 4.16992 2.50232 4.25195C2.58435 4.33398 2.62537 4.43359 2.62537 4.55078ZM3.70349 7.98438V3.69531C3.70349 3.57812 3.66052 3.47852 3.57458 3.39648C3.48865 3.31445 3.38708 3.27344 3.2699 3.27344H1.34802C1.23083 3.27344 1.12927 3.31445 1.04333 3.39648C0.957397 3.47852 0.914429 3.57812 0.914429 3.69531V7.98438C0.914429 8.10156 0.957397 8.20117 1.04333 8.2832C1.12927 8.36523 1.23083 8.40625 1.34802 8.40625H3.2699C3.38708 8.40625 3.48865 8.36523 3.57458 8.2832C3.66052 8.20117 3.70349 8.10156 3.70349 7.98438ZM11.2621 6.98828C11.3715 7.11328 11.4594 7.26562 11.5258 7.44531C11.5922 7.625 11.6254 7.80469 11.6254 7.98438C11.6254 8.32812 11.4984 8.62891 11.2445 8.88672C10.9906 9.14453 10.6918 9.27344 10.348 9.27344H8.48474C8.51599 9.375 8.54724 9.45312 8.57849 9.50781C8.60974 9.5625 8.6449 9.625 8.68396 9.69531C8.7699 9.86719 8.85388 10.0566 8.93591 10.2637C9.01794 10.4707 9.05896 10.7109 9.05896 10.9844C9.05896 11.2422 8.99646 11.5918 8.87146 12.0332C8.74646 12.4746 8.30896 12.6953 7.55896 12.6953C7.50427 12.6953 7.44958 12.6836 7.3949 12.6602C7.34021 12.6367 7.29333 12.6055 7.25427 12.5664C7.11365 12.4258 7.01404 12.2578 6.95544 12.0625C6.89685 11.8672 6.84802 11.6719 6.80896 11.4766C6.7699 11.2812 6.72498 11.0898 6.67419 10.9023C6.62341 10.7148 6.53162 10.5547 6.3988 10.4219C6.29724 10.3203 6.18982 10.2012 6.07654 10.0645C5.96326 9.92773 5.84412 9.78125 5.71912 9.625C5.57068 9.42969 5.36755 9.18164 5.10974 8.88086C4.85193 8.58008 4.66052 8.42578 4.53552 8.41797C4.42615 8.41016 4.33044 8.36523 4.24841 8.2832C4.16638 8.20117 4.12537 8.10156 4.12537 7.98438V3.69531C4.12537 3.57812 4.16833 3.47852 4.25427 3.39648C4.34021 3.31445 4.44177 3.27344 4.55896 3.27344C4.67615 3.26562 4.82849 3.23242 5.01599 3.17383C5.20349 3.11523 5.40271 3.04688 5.61365 2.96875C5.97302 2.85156 6.37341 2.72852 6.81482 2.59961C7.25623 2.4707 7.71912 2.40625 8.20349 2.40625H9.05896C9.35583 2.41406 9.6156 2.46094 9.83826 2.54688C10.0609 2.63281 10.2426 2.76172 10.3832 2.93359C10.5082 3.08203 10.6 3.25781 10.6586 3.46094C10.7172 3.66406 10.7347 3.89062 10.7113 4.14062C10.7972 4.22656 10.8715 4.32227 10.934 4.42773C10.9965 4.5332 11.0433 4.64844 11.0746 4.77344C11.1136 4.90625 11.1332 5.03906 11.1332 5.17188C11.1332 5.30469 11.1136 5.43359 11.0746 5.55859C11.1761 5.69141 11.2504 5.83594 11.2972 5.99219C11.3441 6.14844 11.3636 6.30859 11.3558 6.47266C11.3558 6.51953 11.35 6.58984 11.3383 6.68359C11.3265 6.77734 11.3011 6.87891 11.2621 6.98828Z" fill="black"/>
</g>
<defs>
<clipPath id="clip0_2015_359">
<rect width="10.72" height="12" fill="white" transform="matrix(1 0 0 -1 0.909912 12.5898)"/>
</clipPath>
</defs>
</svg>
