<svg width="20" height="21" viewBox="0 0 20 21" fill="none" xmlns="http://www.w3.org/2000/svg">
<path d="M7.92969 12.7803C8.95833 12.7803 9.84049 12.4157 10.5762 11.6865C11.3118 10.9574 11.6797 10.0719 11.6797 9.03027C11.6797 8.00163 11.3151 7.11947 10.5859 6.38379C9.85677 5.64811 8.97135 5.28027 7.92969 5.28027C6.90104 5.28027 6.01888 5.64811 5.2832 6.38379C4.54753 7.11947 4.17969 8.00163 4.17969 9.03027C4.17969 10.0719 4.54427 10.9574 5.27344 11.6865C6.0026 12.4157 6.88802 12.7803 7.92969 12.7803ZM12.9297 12.7803L17.0703 16.9209L15.8203 18.1709L11.6797 14.0303V13.3662L11.4453 13.1318C10.9766 13.5485 10.4395 13.8675 9.83398 14.0889C9.22852 14.3102 8.59375 14.4209 7.92969 14.4209C7.17448 14.4209 6.47135 14.2842 5.82031 14.0107C5.15625 13.7243 4.58008 13.3402 4.0918 12.8584C3.60352 12.3766 3.21615 11.8037 2.92969 11.1396C2.64323 10.4886 2.5 9.78548 2.5 9.03027C2.5 8.28809 2.64323 7.58496 2.92969 6.9209C3.21615 6.25684 3.60352 5.68066 4.0918 5.19238C4.58008 4.7041 5.15625 4.31673 5.82031 4.03027C6.47135 3.74382 7.17448 3.60059 7.92969 3.60059C8.6849 3.60059 9.38802 3.74382 10.0391 4.03027C10.6901 4.31673 11.2598 4.7041 11.748 5.19238C12.2363 5.68066 12.6237 6.25684 12.9102 6.9209C13.1836 7.58496 13.3203 8.28809 13.3203 9.03027C13.3203 9.69434 13.2096 10.3291 12.9883 10.9346C12.7669 11.54 12.4479 12.0771 12.0312 12.5459L12.2656 12.7803H12.9297Z" fill="black"/>
</svg>
