<svg width="12" height="13" viewBox="0 0 12 13" fill="none" xmlns="http://www.w3.org/2000/svg">
<path d="M3 8.08984C3 8.08984 3.05469 7.97266 3.16406 7.73828C3.28125 7.50391 3.50195 7.24609 3.82617 6.96484C4.15039 6.68359 4.60547 6.42578 5.19141 6.19141C5.77734 5.95703 6.54688 5.83984 7.5 5.83984V8.08984L12 5.08984L7.5 2.08984V4.33984C6.75 4.33984 6.09375 4.44531 5.53125 4.65625C4.96875 4.875 4.5 5.16016 4.125 5.51172C3.75 5.86328 3.46875 6.26172 3.28125 6.70703C3.09375 7.16016 3 7.62109 3 8.08984ZM8.25 9.58984H1.5V5.08984H2.97656C3.03125 5.01953 3.0918 4.95117 3.1582 4.88477C3.22461 4.81836 3.28906 4.75391 3.35156 4.69141C3.60938 4.44922 3.89258 4.23633 4.20117 4.05273C4.50977 3.86914 4.83594 3.71484 5.17969 3.58984H0V11.0898H9.75V7.9375L8.25 8.94531V9.58984Z" fill="black"/>
</svg>
