<svg width="170" height="36" viewBox="0 0 170 36" fill="none" xmlns="http://www.w3.org/2000/svg">
<g clip-path="url(#clip0_2015_306)">
<g clip-path="url(#clip1_2015_306)">
<path fill-rule="evenodd" clip-rule="evenodd" d="M127 -7.21973H170V42.7803H127V-7.21973Z" fill="#F2F6F6" fill-opacity="0.5"/>
<path d="M127 42.7803V-7.21973" stroke="#CCD6E0" stroke-linecap="square"/>
<path d="M151.845 15.973C151.973 15.8494 152.145 15.7803 152.323 15.7803C152.501 15.7803 152.673 15.8494 152.801 15.973C152.864 16.0333 152.914 16.1056 152.948 16.1857C152.982 16.2658 153 16.352 153 16.439C153 16.5261 152.982 16.6123 152.948 16.6924C152.914 16.7725 152.864 16.8448 152.801 16.905L148.978 20.587C148.849 20.7108 148.678 20.7799 148.5 20.7799C148.321 20.7799 148.15 20.7108 148.021 20.587L144.198 16.905C144.135 16.8447 144.086 16.7723 144.051 16.6922C144.017 16.6122 144 16.5261 144 16.439C144 16.352 144.017 16.2659 144.051 16.1859C144.086 16.1058 144.135 16.0334 144.198 15.973C144.326 15.8491 144.498 15.7798 144.677 15.7798C144.855 15.7798 145.027 15.8491 145.155 15.973L148.501 18.993L151.845 15.973Z" fill="#757D8B"/>
</g>
</g>
<defs>
<clipPath id="clip0_2015_306">
<rect width="170" height="35" fill="white" transform="translate(0 0.280273)"/>
</clipPath>
<clipPath id="clip1_2015_306">
<rect width="44" height="52" fill="white" transform="translate(126 -8.21973)"/>
</clipPath>
</defs>
</svg>
