<svg width="18" height="14" viewBox="0 0 18 14" fill="none" xmlns="http://www.w3.org/2000/svg">
<g clip-path="url(#clip0_2015_370)">
<g clip-path="url(#clip1_2015_370)">
<g clip-path="url(#clip2_2015_370)">
<path d="M0 0.0297852H18V4.52979H0V0.0297852Z" fill="#FF9933"/>
<path d="M0 4.52979H18V9.02979H0V4.52979Z" fill="white"/>
<path d="M0 9.02979H18V13.5298H0V9.02979Z" fill="#128807"/>
<path d="M8.99995 8.57998C9.99406 8.57998 10.8 7.77409 10.8 6.77998C10.8 5.78587 9.99406 4.97998 8.99995 4.97998C8.00584 4.97998 7.19995 5.78587 7.19995 6.77998C7.19995 7.77409 8.00584 8.57998 8.99995 8.57998Z" fill="#000088"/>
<path d="M9.00005 8.35508C9.8699 8.35508 10.575 7.64993 10.575 6.78008C10.575 5.91023 9.8699 5.20508 9.00005 5.20508C8.1302 5.20508 7.42505 5.91023 7.42505 6.78008C7.42505 7.64993 8.1302 8.35508 9.00005 8.35508Z" fill="white"/>
<path d="M9.00006 7.09484C9.17403 7.09484 9.31506 6.95381 9.31506 6.77984C9.31506 6.60587 9.17403 6.46484 9.00006 6.46484C8.82609 6.46484 8.68506 6.60587 8.68506 6.77984C8.68506 6.95381 8.82609 7.09484 9.00006 7.09484Z" fill="#000088"/>
<path d="M10.5509 7.06718C10.5952 7.07302 10.6359 7.0418 10.6417 6.99745C10.6476 6.9531 10.6164 6.91241 10.572 6.90657C10.5277 6.90073 10.487 6.93195 10.4811 6.9763C10.4753 7.02066 10.5065 7.06134 10.5509 7.06718Z" fill="#000088"/>
<path d="M9.00004 8.35594L9.05404 7.41094L9.00004 6.96094L8.94604 7.41094L9.00004 8.35594Z" fill="#000088"/>
<path d="M10.424 7.4585C10.4653 7.47562 10.5127 7.45599 10.5298 7.41466C10.5469 7.37333 10.5273 7.32595 10.486 7.30883C10.4446 7.29171 10.3973 7.31134 10.3801 7.35267C10.363 7.394 10.3826 7.44138 10.424 7.4585Z" fill="#000088"/>
<path d="M8.59223 8.30187L8.88897 7.40305L8.95328 6.95441L8.78465 7.3751L8.59223 8.30187Z" fill="#000088"/>
<path d="M10.2 7.80381C10.2355 7.83104 10.2864 7.82435 10.3136 7.78886C10.3408 7.75337 10.3341 7.70252 10.2986 7.67529C10.2631 7.64805 10.2123 7.65475 10.1851 7.69024C10.1578 7.72573 10.1645 7.77658 10.2 7.80381Z" fill="#000088"/>
<path d="M8.21255 8.14429L8.73181 7.35289L8.91005 6.93618L8.63828 7.29889L8.21255 8.14429Z" fill="#000088"/>
<path d="M9.89418 8.07987C9.92141 8.11536 9.97226 8.12206 10.0077 8.09483C10.0432 8.06759 10.0499 8.01674 10.0227 7.98125C9.99547 7.94576 9.94462 7.93907 9.90913 7.9663C9.87364 7.99353 9.86694 8.04438 9.89418 8.07987Z" fill="#000088"/>
<path d="M7.88649 7.89423L8.59289 7.26419L8.8729 6.90781L8.51652 7.18783L7.88649 7.89423Z" fill="#000088"/>
<path d="M9.52757 8.26671C9.54469 8.30804 9.59207 8.32767 9.6334 8.31055C9.67473 8.29343 9.69436 8.24605 9.67724 8.20472C9.66012 8.16339 9.61274 8.14376 9.57141 8.16088C9.53008 8.178 9.51045 8.22538 9.52757 8.26671Z" fill="#000088"/>
<path d="M7.63603 7.56751L8.48143 7.14177L8.84414 6.87001L8.42743 7.04824L7.63603 7.56751Z" fill="#000088"/>
<path d="M9.12486 8.35243C9.1307 8.39678 9.17139 8.428 9.21574 8.42216C9.26009 8.41632 9.29131 8.37564 9.28547 8.33128C9.27964 8.28693 9.23895 8.25571 9.1946 8.26155C9.15024 8.26739 9.11902 8.30808 9.12486 8.35243Z" fill="#000088"/>
<path d="M7.47877 7.18763L8.40554 6.9952L8.82623 6.82657L8.37759 6.89088L7.47877 7.18763Z" fill="#000088"/>
<path d="M8.71358 8.33113C8.70774 8.37549 8.73896 8.41618 8.78331 8.42201C8.82767 8.42785 8.86835 8.39663 8.87419 8.35228C8.88003 8.30793 8.84881 8.26724 8.80446 8.2614C8.76011 8.25556 8.71942 8.28678 8.71358 8.33113Z" fill="#000088"/>
<path d="M7.42507 6.78007L8.37007 6.83407L8.82007 6.78007L8.37007 6.72607L7.42507 6.78007Z" fill="#000088"/>
<path d="M8.32178 8.20425C8.30466 8.24558 8.32428 8.29296 8.36561 8.31008C8.40694 8.3272 8.45432 8.30757 8.47144 8.26624C8.48856 8.22491 8.46894 8.17753 8.42761 8.16041C8.38628 8.14329 8.33889 8.16292 8.32178 8.20425Z" fill="#000088"/>
<path d="M7.47865 6.37275L8.37747 6.66949L8.82611 6.7338L8.40542 6.56517L7.47865 6.37275Z" fill="#000088"/>
<path d="M7.97646 7.97931C7.94923 8.0148 7.95593 8.06565 7.99142 8.09289C8.02691 8.12012 8.07775 8.11342 8.10499 8.07793C8.13222 8.04244 8.12553 7.9916 8.09004 7.96436C8.05454 7.93713 8.0037 7.94382 7.97646 7.97931Z" fill="#000088"/>
<path d="M7.63599 5.99184L8.42738 6.51111L8.84409 6.68934L8.48138 6.41758L7.63599 5.99184Z" fill="#000088"/>
<path d="M7.70089 7.67372C7.6654 7.70095 7.6587 7.7518 7.68594 7.78729C7.71317 7.82278 7.76402 7.82947 7.79951 7.80224C7.835 7.77501 7.84169 7.72416 7.81446 7.68867C7.78723 7.65318 7.73638 7.64648 7.70089 7.67372Z" fill="#000088"/>
<path d="M7.88654 5.66554L8.51657 6.37194L8.87295 6.65195L8.59293 6.29557L7.88654 5.66554Z" fill="#000088"/>
<path d="M7.51381 7.30711C7.47248 7.32423 7.45285 7.37161 7.46997 7.41294C7.48709 7.45427 7.53447 7.4739 7.5758 7.45678C7.61713 7.43966 7.63676 7.39228 7.61964 7.35095C7.60252 7.30962 7.55514 7.28999 7.51381 7.30711Z" fill="#000088"/>
<path d="M8.21252 5.41557L8.63826 6.26097L8.91002 6.62368L8.73179 6.20697L8.21252 5.41557Z" fill="#000088"/>
<path d="M7.42784 6.90416C7.38349 6.91 7.35227 6.95069 7.35811 6.99504C7.36395 7.03939 7.40464 7.07061 7.44899 7.06477C7.49334 7.05893 7.52456 7.01824 7.51872 6.97389C7.51289 6.92954 7.4722 6.89832 7.42784 6.90416Z" fill="#000088"/>
<path d="M8.5924 5.25831L8.78483 6.18508L8.95346 6.60577L8.88915 6.15713L8.5924 5.25831Z" fill="#000088"/>
<path d="M7.44938 6.49288C7.40503 6.48704 7.36434 6.51826 7.3585 6.56261C7.35266 6.60696 7.38389 6.64765 7.42824 6.65349C7.47259 6.65933 7.51328 6.62811 7.51912 6.58376C7.52496 6.5394 7.49374 6.49871 7.44938 6.49288Z" fill="#000088"/>
<path d="M9.0002 5.20412L8.9462 6.14912L9.0002 6.59912L9.0542 6.14912L9.0002 5.20412Z" fill="#000088"/>
<path d="M7.57627 6.10156C7.53494 6.08444 7.48756 6.10407 7.47044 6.1454C7.45332 6.18673 7.47295 6.23411 7.51428 6.25123C7.55561 6.26835 7.60299 6.24872 7.62011 6.20739C7.63723 6.16606 7.6176 6.11868 7.57627 6.10156Z" fill="#000088"/>
<path d="M9.40801 5.25819L9.11127 6.15701L9.04696 6.60565L9.21559 6.18496L9.40801 5.25819Z" fill="#000088"/>
<path d="M7.80023 5.75625C7.76474 5.72902 7.71389 5.73571 7.68666 5.7712C7.65942 5.80669 7.66612 5.85754 7.70161 5.88477C7.7371 5.91201 7.78795 5.90531 7.81518 5.86982C7.84241 5.83433 7.83572 5.78348 7.80023 5.75625Z" fill="#000088"/>
<path d="M9.7877 5.41577L9.26843 6.20717L9.0902 6.62388L9.36196 6.26117L9.7877 5.41577Z" fill="#000088"/>
<path d="M8.10607 5.48019C8.07884 5.44469 8.02799 5.438 7.9925 5.46523C7.95701 5.49247 7.95031 5.54331 7.97755 5.5788C8.00478 5.6143 8.05563 5.62099 8.09112 5.59376C8.12661 5.56652 8.1333 5.51568 8.10607 5.48019Z" fill="#000088"/>
<path d="M10.1138 5.66583L9.40736 6.29586L9.12734 6.65225L9.48373 6.37223L10.1138 5.66583Z" fill="#000088"/>
<path d="M8.47243 5.29335C8.45531 5.25202 8.40793 5.23239 8.3666 5.24951C8.32527 5.26663 8.30564 5.31401 8.32276 5.35534C8.33988 5.39667 8.38726 5.4163 8.42859 5.39918C8.46992 5.38206 8.48955 5.33468 8.47243 5.29335Z" fill="#000088"/>
<path d="M10.364 5.99255L9.51857 6.41829L9.15586 6.69005L9.57257 6.51182L10.364 5.99255Z" fill="#000088"/>
<path d="M8.87514 5.20763C8.8693 5.16328 8.82861 5.13206 8.78426 5.1379C8.73991 5.14373 8.70869 5.18442 8.71453 5.22877C8.72036 5.27313 8.76105 5.30435 8.8054 5.29851C8.84976 5.29267 8.88098 5.25198 8.87514 5.20763Z" fill="#000088"/>
<path d="M10.5212 6.37243L9.59446 6.56486L9.17377 6.73348L9.62241 6.66918L10.5212 6.37243Z" fill="#000088"/>
<path d="M9.28642 5.22892C9.29226 5.18457 9.26104 5.14388 9.21669 5.13804C9.17233 5.13221 9.13165 5.16343 9.12581 5.20778C9.11997 5.25213 9.15119 5.29282 9.19554 5.29866C9.23989 5.3045 9.28058 5.27328 9.28642 5.22892Z" fill="#000088"/>
<path d="M10.5749 6.77998L9.62993 6.72598L9.17993 6.77998L9.62993 6.83398L10.5749 6.77998Z" fill="#000088"/>
<path d="M9.67822 5.35581C9.69534 5.31448 9.67572 5.2671 9.63439 5.24998C9.59306 5.23286 9.54568 5.25249 9.52856 5.29382C9.51144 5.33515 9.53106 5.38253 9.57239 5.39965C9.61372 5.41677 9.66111 5.39714 9.67822 5.35581Z" fill="#000088"/>
<path d="M10.5214 7.18731L9.62253 6.89057L9.17389 6.82626L9.59458 6.99489L10.5214 7.18731Z" fill="#000088"/>
<path d="M10.0238 5.58026C10.051 5.54477 10.0443 5.49392 10.0088 5.46668C9.97334 5.43945 9.92249 5.44615 9.89526 5.48164C9.86802 5.51713 9.87472 5.56798 9.91021 5.59521C9.9457 5.62244 9.99655 5.61575 10.0238 5.58026Z" fill="#000088"/>
<path d="M10.3643 7.56773L9.57286 7.04846L9.15615 6.87023L9.51886 7.14199L10.3643 7.56773Z" fill="#000088"/>
<path d="M10.2994 5.88585C10.3348 5.85862 10.3415 5.80777 10.3143 5.77228C10.2871 5.73679 10.2362 5.7301 10.2007 5.75733C10.1652 5.78456 10.1586 5.83541 10.1858 5.8709C10.213 5.90639 10.2639 5.91309 10.2994 5.88585Z" fill="#000088"/>
<path d="M10.1137 7.89403L9.48368 7.18763L9.1273 6.90762L9.40731 7.264L10.1137 7.89403Z" fill="#000088"/>
<path d="M10.4864 6.25246C10.5278 6.23534 10.5474 6.18796 10.5303 6.14663C10.5132 6.1053 10.4658 6.08567 10.4244 6.10279C10.3831 6.11991 10.3635 6.16729 10.3806 6.20862C10.3977 6.24995 10.4451 6.26958 10.4864 6.25246Z" fill="#000088"/>
<path d="M9.78772 8.144L9.36199 7.2986L9.09022 6.93589L9.26846 7.3526L9.78772 8.144Z" fill="#000088"/>
<path d="M10.5724 6.65541C10.6168 6.64957 10.648 6.60889 10.6421 6.56453C10.6363 6.52018 10.5956 6.48896 10.5513 6.4948C10.5069 6.50064 10.4757 6.54133 10.4815 6.58568C10.4874 6.63003 10.528 6.66125 10.5724 6.65541Z" fill="#000088"/>
<path d="M9.40784 8.30126L9.21542 7.37449L9.04679 6.9538L9.1111 7.40244L9.40784 8.30126Z" fill="#000088"/>
</g>
</g>
</g>
<defs>
<clipPath id="clip0_2015_370">
<rect width="18" height="13.5" fill="white" transform="translate(0 0.0297852)"/>
</clipPath>
<clipPath id="clip1_2015_370">
<rect width="18" height="13.5" fill="white" transform="translate(0 0.0297852)"/>
</clipPath>
<clipPath id="clip2_2015_370">
<rect width="18" height="13.5" fill="white" transform="translate(0 0.0297852)"/>
</clipPath>
</defs>
</svg>
