<svg width="28" height="29" viewBox="0 0 28 29" fill="none" xmlns="http://www.w3.org/2000/svg">
<g opacity="0.35">
<path fill-rule="evenodd" clip-rule="evenodd" d="M14 28.77C6.26801 28.77 0 22.502 0 14.77C0 7.03803 6.26801 0.77002 14 0.77002C21.732 0.77002 28 7.03803 28 14.77C28 22.502 21.732 28.77 14 28.77ZM13.5807 7.77117C13.2738 7.81073 12.9668 7.85029 12.6599 7.88984C12.0816 8.03716 11.4512 8.17698 10.9837 8.45899C9.73611 9.21194 8.87174 10.09 8.29241 11.5192C8.19895 11.7501 8.19559 11.9738 8.12719 12.2309C7.68317 13.8961 8.47046 15.6199 9.42565 16.216C9.60937 16.3309 10.0275 16.5338 10.1811 16.2637C10.266 16.114 10.247 15.9152 10.2992 15.7416C10.3336 15.6267 10.4422 15.4105 10.4171 15.2673C10.3746 15.0241 10.1221 14.87 10.0158 14.6742C9.80047 14.2773 9.78984 13.925 9.68527 13.3934C9.69312 13.3221 9.70099 13.2509 9.70895 13.1796C9.74073 12.5849 9.83814 12.1559 10.0158 11.7327C10.5379 10.4897 11.3765 9.79814 12.7307 9.38414C13.0337 9.29174 13.8881 9.14272 14.3361 9.24195C14.6037 9.28935 14.8713 9.33674 15.1388 9.38414C16.1085 9.69924 16.8145 10.2803 17.1928 11.1871C17.4288 11.7528 17.4985 12.8345 17.3344 13.5591C17.2566 13.9025 17.2685 14.1968 17.1692 14.5082C16.8017 15.6594 16.263 16.7261 15.0444 17.0228C14.2404 17.2182 13.6377 16.7128 13.439 16.1924C13.384 16.0482 13.2898 15.7924 13.3446 15.5517C13.5572 14.6173 13.8637 13.7811 14.1 12.8478C14.3251 11.9584 13.8978 11.2566 13.2265 11.0923C12.3913 10.8877 11.7469 11.6849 11.5268 12.207C11.352 12.6217 11.2462 13.3869 11.3851 13.939C11.4292 14.114 11.634 14.5825 11.5976 14.7455C11.4363 15.4671 11.2536 16.2426 11.0546 16.9515C10.8474 17.6895 10.7358 18.4448 10.5352 19.1578C10.443 19.4852 10.446 19.8358 10.37 20.1778V20.676C10.301 20.9915 10.3518 21.5511 10.4171 21.8617C10.4591 22.0612 10.3927 22.3084 10.4879 22.4551C10.4899 22.5615 10.5029 22.5846 10.5352 22.6447C10.8309 22.6358 11.2377 21.8351 11.3851 21.6012C11.6659 21.1551 11.9262 20.6764 12.1405 20.1539C12.3337 19.6833 12.3638 19.1626 12.5183 18.6596C12.6299 18.2961 12.7879 17.8726 12.8253 17.4736H12.8488C12.9101 17.6922 13.1319 17.8504 13.2973 17.9715C13.8166 18.352 14.7102 18.7063 15.6818 18.4697C16.7803 18.202 17.655 17.6697 18.2315 16.8802C18.6561 16.2992 18.9766 15.6253 19.223 14.8642C19.3441 14.4898 19.3696 14.0751 19.4591 13.6778C19.6836 12.6827 19.3847 11.4834 19.105 10.8314C18.2576 8.85558 16.4566 7.7289 13.5807 7.77117Z" fill="#4D4D4D"/>
</g>
</svg>
