<svg width="28" height="29" viewBox="0 0 28 29" fill="none" xmlns="http://www.w3.org/2000/svg">
<g opacity="0.4">
<path fill-rule="evenodd" clip-rule="evenodd" d="M14 28.52C6.26801 28.52 0 22.252 0 14.52C0 6.78803 6.26801 0.52002 14 0.52002C21.732 0.52002 28 6.78803 28 14.52C28 22.252 21.732 28.52 14 28.52ZM17.2027 9.52063C17.0776 9.53434 16.9525 9.54775 16.8273 9.56116C16.5844 9.60913 16.3528 9.66874 16.1442 9.7504C15.2713 10.0925 14.6763 10.7315 14.4024 11.6172C14.2935 11.9695 14.249 12.5584 14.3874 12.9223C13.8949 12.9217 13.4183 12.8516 13.006 12.7601C11.3806 12.3986 10.3685 11.9108 9.24471 11.1165C8.91486 10.8835 8.59123 10.6191 8.32888 10.3253C8.24425 10.2308 8.11087 10.1477 8.0511 10.0347C8.04608 10.0323 8.04108 10.0302 8.03607 10.0279C7.9055 10.2463 7.78293 10.4832 7.70571 10.7515C7.4012 11.8091 7.88266 12.697 8.39636 13.2739C8.55207 13.4489 8.80452 13.5574 8.95943 13.7204H8.97444C8.85808 13.7594 8.65541 13.7055 8.55406 13.6867C8.31406 13.6417 8.10958 13.6009 7.90841 13.5243C7.80336 13.4793 7.69821 13.434 7.59306 13.389C7.58816 14.5572 8.24125 15.3166 9.04204 15.7693C9.30308 15.9171 9.66828 16.1159 10.048 16.1347C9.84483 16.2893 8.97585 16.2184 8.67414 16.1889C9.05114 17.066 9.63064 17.6498 10.6262 17.9675C10.8829 18.0492 11.1964 18.1216 11.542 18.1162C11.3586 18.3129 10.9669 18.4732 10.7087 18.6097C10.1762 18.8914 9.55804 19.0738 8.86188 19.2117C8.58272 19.2669 8.28601 19.2556 7.98349 19.2997C7.64904 19.3482 7.29917 19.274 6.99996 19.2657C7.0901 19.3154 7.18021 19.3649 7.27023 19.4147C7.54461 19.5655 7.83149 19.6978 8.14112 19.8203C8.69867 20.0406 9.29278 20.2071 9.95047 20.3547C11.2767 20.6521 13.1473 20.5183 14.3048 20.1922C17.5284 19.2848 19.5648 17.1658 20.3333 14.0449C20.4655 13.5079 20.4848 12.8984 20.4759 12.2597C20.6362 12.1447 20.7963 12.0297 20.9565 11.9146C21.3533 11.6276 21.7252 11.2274 22 10.8328V10.8257C21.4769 10.9735 20.926 11.2456 20.2583 11.2518V11.2453C20.3887 11.1991 20.4921 11.101 20.5961 11.0286C21.0647 10.7026 21.3697 10.2725 21.5946 9.72358C21.467 9.78676 21.3393 9.84964 21.2117 9.91282C20.818 10.0937 20.1495 10.3533 19.6351 10.3929C19.0292 9.89404 18.3947 9.50155 17.2027 9.52063Z" fill="#677279"/>
</g>
</svg>
