<svg width="28" height="29" viewBox="0 0 28 29" fill="none" xmlns="http://www.w3.org/2000/svg">
<g opacity="0.35">
<path fill-rule="evenodd" clip-rule="evenodd" d="M14 28.77C6.26801 28.77 0 22.502 0 14.77C0 7.03803 6.26801 0.77002 14 0.77002C21.732 0.77002 28 7.03803 28 14.77C28 22.502 21.732 28.77 14 28.77ZM17.2027 9.77063C17.0776 9.78434 16.9525 9.79775 16.8273 9.81116C16.5844 9.85913 16.3528 9.91874 16.1442 10.0004C15.2713 10.3425 14.6763 10.9815 14.4024 11.8672C14.2935 12.2195 14.249 12.8084 14.3874 13.1723C13.8949 13.1717 13.4183 13.1016 13.006 13.0101C11.3806 12.6486 10.3685 12.1608 9.24471 11.3665C8.91486 11.1335 8.59123 10.8691 8.32888 10.5753C8.24425 10.4808 8.11087 10.3977 8.0511 10.2847C8.04608 10.2823 8.04108 10.2802 8.03607 10.2779C7.9055 10.4963 7.78293 10.7332 7.70571 11.0015C7.4012 12.0591 7.88266 12.947 8.39636 13.5239C8.55207 13.6989 8.80452 13.8074 8.95943 13.9704H8.97444C8.85808 14.0094 8.65541 13.9555 8.55406 13.9367C8.31406 13.8917 8.10958 13.8509 7.90841 13.7743C7.80336 13.7293 7.69821 13.684 7.59306 13.639C7.58816 14.8072 8.24125 15.5666 9.04204 16.0193C9.30308 16.1671 9.66828 16.3659 10.048 16.3847C9.84483 16.5393 8.97585 16.4684 8.67414 16.4389C9.05114 17.316 9.63064 17.8998 10.6262 18.2175C10.8829 18.2992 11.1964 18.3716 11.542 18.3662C11.3586 18.5629 10.9669 18.7232 10.7087 18.8597C10.1762 19.1414 9.55804 19.3238 8.86188 19.4617C8.58272 19.5169 8.28601 19.5056 7.98349 19.5497C7.64904 19.5982 7.29917 19.524 6.99996 19.5157C7.0901 19.5654 7.18021 19.6149 7.27023 19.6647C7.54461 19.8155 7.83149 19.9478 8.14112 20.0703C8.69867 20.2906 9.29278 20.4571 9.95047 20.6047C11.2767 20.9021 13.1473 20.7683 14.3048 20.4422C17.5284 19.5348 19.5648 17.4158 20.3333 14.2949C20.4655 13.7579 20.4848 13.1484 20.4759 12.5097C20.6362 12.3947 20.7963 12.2797 20.9565 12.1646C21.3533 11.8776 21.7252 11.4774 22 11.0828V11.0757C21.4769 11.2235 20.926 11.4956 20.2583 11.5018V11.4953C20.3887 11.4491 20.4921 11.351 20.5961 11.2786C21.0647 10.9526 21.3697 10.5225 21.5946 9.97358C21.467 10.0368 21.3393 10.0996 21.2117 10.1628C20.818 10.3437 20.1495 10.6033 19.6351 10.6429C19.0292 10.144 18.3947 9.75155 17.2027 9.77063Z" fill="#4D4D4D"/>
</g>
</svg>
