<svg width="28" height="29" viewBox="0 0 28 29" fill="none" xmlns="http://www.w3.org/2000/svg">
<g opacity="0.4">
<path fill-rule="evenodd" clip-rule="evenodd" d="M14 28.52C6.26801 28.52 0 22.252 0 14.52C0 6.78803 6.26801 0.52002 14 0.52002C21.732 0.52002 28 6.78803 28 14.52C28 22.252 21.732 28.52 14 28.52ZM9.56256 7.52002C8.69728 7.52002 8 8.22107 8 9.08487C8 9.94918 8.69728 10.6502 9.56256 10.6502C10.4243 10.6502 11.1241 9.94918 11.1241 9.08487C11.1241 8.22107 10.4243 7.52002 9.56256 7.52002ZM8.21393 20.52H10.9102V11.8365H8.21393V20.52ZM12.6004 11.8365V20.52H15.2911V16.2253C15.2911 15.0921 15.505 13.9947 16.9067 13.9947C18.2891 13.9947 18.3068 15.2902 18.3068 16.297V20.52H21V15.7577C21 13.419 20.496 11.6212 17.7689 11.6212C16.4581 11.6212 15.5787 12.3409 15.2195 13.0238H15.1826V11.8365H12.6004Z" fill="#677279"/>
</g>
</svg>
