<svg width="28" height="29" viewBox="0 0 28 29" fill="none" xmlns="http://www.w3.org/2000/svg">
<g opacity="0.4">
<path fill-rule="evenodd" clip-rule="evenodd" d="M14 28.52C6.26801 28.52 0 22.252 0 14.52C0 6.78803 6.26801 0.52002 14 0.52002C21.732 0.52002 28 6.78803 28 14.52C28 22.252 21.732 28.52 14 28.52ZM14 7.02002C11.9631 7.02002 11.7077 7.02865 10.9078 7.06515C10.1095 7.10156 9.56427 7.22836 9.08721 7.41377C8.59402 7.60541 8.17577 7.86186 7.75879 8.27881C7.34184 8.69579 7.08539 9.11404 6.89375 9.60723C6.70834 10.0843 6.58154 10.6295 6.54513 11.4278C6.50863 12.2277 6.5 12.4831 6.5 14.52C6.5 16.5569 6.50863 16.8123 6.54513 17.6123C6.58154 18.4105 6.70834 18.9557 6.89375 19.4328C7.08539 19.926 7.34184 20.3443 7.75879 20.7612C8.17577 21.1782 8.59402 21.4346 9.08721 21.6263C9.56427 21.8117 10.1095 21.9385 10.9078 21.9749C11.7077 22.0114 11.9631 22.02 14 22.02C16.0369 22.02 16.2923 22.0114 17.0922 21.9749C17.8905 21.9385 18.4357 21.8117 18.9128 21.6263C19.406 21.4346 19.8242 21.1782 20.2412 20.7612C20.6582 20.3443 20.9146 19.926 21.1063 19.4328C21.2917 18.9557 21.4185 18.4105 21.4549 17.6123C21.4914 16.8123 21.5 16.5569 21.5 14.52C21.5 12.4831 21.4914 12.2277 21.4549 11.4278C21.4185 10.6295 21.2917 10.0843 21.1063 9.60723C20.9146 9.11404 20.6582 8.69579 20.2412 8.27881C19.8242 7.86186 19.406 7.60541 18.9128 7.41377C18.4357 7.22836 17.8905 7.10156 17.0922 7.06515C16.2923 7.02865 16.0369 7.02002 14 7.02002ZM14 8.37137C16.0026 8.37137 16.2398 8.37902 17.0306 8.4151C17.7619 8.44845 18.159 8.57063 18.4233 8.67334C18.7734 8.80939 19.0232 8.97192 19.2856 9.23438C19.5481 9.49681 19.7106 9.74665 19.8467 10.0967C19.9494 10.361 20.0716 10.7581 20.1049 11.4894C20.141 12.2802 20.1487 12.5174 20.1487 14.52C20.1487 16.5226 20.141 16.7598 20.1049 17.5507C20.0716 18.2819 19.9494 18.679 19.8467 18.9433C19.7106 19.2934 19.5481 19.5432 19.2856 19.8057C19.0232 20.0681 18.7734 20.2306 18.4233 20.3667C18.159 20.4694 17.7619 20.5916 17.0306 20.6249C16.2399 20.661 16.0027 20.6687 14 20.6687C11.9973 20.6687 11.7601 20.661 10.9694 20.6249C10.2381 20.5916 9.84099 20.4694 9.57672 20.3667C9.22663 20.2306 8.97679 20.0681 8.71436 19.8057C8.45193 19.5432 8.28937 19.2934 8.15332 18.9433C8.05061 18.679 7.92843 18.2819 7.89508 17.5507C7.859 16.7598 7.85135 16.5226 7.85135 14.52C7.85135 12.5174 7.859 12.2802 7.89508 11.4894C7.92843 10.7581 8.05061 10.361 8.15332 10.0967C8.28937 9.74665 8.4519 9.49681 8.71436 9.23438C8.97679 8.97192 9.22663 8.80939 9.57672 8.67334C9.84099 8.57063 10.2381 8.44845 10.9694 8.4151C11.7602 8.37902 11.9974 8.37137 14 8.37137ZM14 17.02C12.6193 17.02 11.5 15.9007 11.5 14.52C11.5 13.1393 12.6193 12.02 14 12.02C15.3807 12.02 16.5 13.1393 16.5 14.52C16.5 15.9007 15.3807 17.02 14 17.02ZM14 10.6687C11.8729 10.6687 10.1487 12.393 10.1487 14.52C10.1487 16.6471 11.8729 18.3714 14 18.3714C16.1271 18.3714 17.8513 16.6471 17.8513 14.52C17.8513 12.393 16.1271 10.6687 14 10.6687ZM18.9035 10.5165C18.9035 10.0194 18.5006 9.61649 18.0035 9.61649C17.5065 9.61649 17.1035 10.0194 17.1035 10.5165C17.1035 11.0136 17.5065 11.4165 18.0035 11.4165C18.5006 11.4165 18.9035 11.0136 18.9035 10.5165Z" fill="#677279"/>
</g>
</svg>
