<svg width="28" height="29" viewBox="0 0 28 29" fill="none" xmlns="http://www.w3.org/2000/svg">
<g opacity="0.4">
<path fill-rule="evenodd" clip-rule="evenodd" d="M14 28.52C21.732 28.52 28 22.252 28 14.52C28 6.78803 21.732 0.52002 14 0.52002C6.26801 0.52002 0 6.78803 0 14.52C0 22.252 6.26801 28.52 14 28.52ZM21.1546 10.9899C21.4667 12.1336 21.4667 14.52 21.4667 14.52C21.4667 14.52 21.4667 16.9064 21.1546 18.0503C20.9829 18.6812 20.4769 19.1782 19.8344 19.3469C18.6698 19.6534 14 19.6534 14 19.6534C14 19.6534 9.33019 19.6534 8.16565 19.3469C7.52318 19.1782 7.01714 18.6812 6.84541 18.0503C6.53333 16.9064 6.53333 14.52 6.53333 14.52C6.53333 14.52 6.53333 12.1336 6.84541 10.9899C7.01714 10.3588 7.52318 9.86185 8.16565 9.6932C9.33019 9.38669 14 9.38669 14 9.38669C14 9.38669 18.6698 9.38669 19.8344 9.6932C20.4769 9.86185 20.9829 10.3588 21.1546 10.9899ZM12.4727 16.6867L16.3758 14.5201L12.4727 12.3533V16.6867Z" fill="#677279"/>
</g>
</svg>
