<svg width="86" height="20" viewBox="0 0 86 20" fill="none" xmlns="http://www.w3.org/2000/svg">
<path d="M9 13.5264L4.35938 16.3389L5.58984 11.0654L1.51172 7.51465L6.89062 7.05762L9 2.10059L11.1094 7.05762L16.4883 7.51465L12.4102 11.0654L13.6406 16.3389L9 13.5264Z" fill="#FFD200"/>
<path d="M26 13.5264L21.3594 16.3389L22.5898 11.0654L18.5117 7.51465L23.8906 7.05762L26 2.10059L28.1094 7.05762L33.4883 7.51465L29.4102 11.0654L30.6406 16.3389L26 13.5264Z" fill="#FFD200"/>
<path d="M43 13.5264L38.3594 16.3389L39.5898 11.0654L35.5117 7.51465L40.8906 7.05762L43 2.10059L45.1094 7.05762L50.4883 7.51465L46.4102 11.0654L47.6406 16.3389L43 13.5264Z" fill="#FFD200"/>
<path d="M60 12.1553L62.8125 13.8428L62.0742 10.6436L64.5703 8.46387L61.2656 8.18262L60 5.15918L58.7344 8.18262L55.4297 8.46387L57.9258 10.6436L57.1875 13.8428L60 12.1553ZM67.4883 7.51465L63.4102 11.0654L64.6406 16.3389L60 13.5264L55.3594 16.3389L56.5898 11.0654L52.5117 7.51465L57.8906 7.05762L60 2.10059L62.1094 7.05762L67.4883 7.51465Z" fill="#FFD200"/>
<path d="M77 12.1553L79.8125 13.8428L79.0742 10.6436L81.5703 8.46387L78.2656 8.18262L77 5.15918L75.7344 8.18262L72.4297 8.46387L74.9258 10.6436L74.1875 13.8428L77 12.1553ZM84.4883 7.51465L80.4102 11.0654L81.6406 16.3389L77 13.5264L72.3594 16.3389L73.5898 11.0654L69.5117 7.51465L74.8906 7.05762L77 2.10059L79.1094 7.05762L84.4883 7.51465Z" fill="#FFD200"/>
</svg>
