<svg width="86" height="20" viewBox="0 0 86 20" fill="none" xmlns="http://www.w3.org/2000/svg">
<path d="M9 13.9966L4.35938 16.8091L5.58984 11.5356L1.51172 7.98486L6.89062 7.52783L9 2.5708L11.1094 7.52783L16.4883 7.98486L12.4102 11.5356L13.6406 16.8091L9 13.9966Z" fill="#FFD200"/>
<path d="M26 13.9966L21.3594 16.8091L22.5898 11.5356L18.5117 7.98486L23.8906 7.52783L26 2.5708L28.1094 7.52783L33.4883 7.98486L29.4102 11.5356L30.6406 16.8091L26 13.9966Z" fill="#FFD200"/>
<path d="M43 13.9966L38.3594 16.8091L39.5898 11.5356L35.5117 7.98486L40.8906 7.52783L43 2.5708L45.1094 7.52783L50.4883 7.98486L46.4102 11.5356L47.6406 16.8091L43 13.9966Z" fill="#FFD200"/>
<path d="M60 13.9966L55.3594 16.8091L56.5898 11.5356L52.5117 7.98486L57.8906 7.52783L60 2.5708L62.1094 7.52783L67.4883 7.98486L63.4102 11.5356L64.6406 16.8091L60 13.9966Z" fill="#FFD200"/>
<path d="M77 13.9966L72.3594 16.8091L73.5898 11.5356L69.5117 7.98486L74.8906 7.52783L77 2.5708L79.1094 7.52783L84.4883 7.98486L80.4102 11.5356L81.6406 16.8091L77 13.9966Z" fill="#FFD200"/>
</svg>
