<svg width="86" height="20" viewBox="0 0 86 20" fill="none" xmlns="http://www.w3.org/2000/svg">
<path d="M9 13.8364L4.35938 16.6489L5.58984 11.3755L1.51172 7.82471L6.89062 7.36768L9 2.41064L11.1094 7.36768L16.4883 7.82471L12.4102 11.3755L13.6406 16.6489L9 13.8364Z" fill="#FFD200"/>
<path d="M26 13.8364L21.3594 16.6489L22.5898 11.3755L18.5117 7.82471L23.8906 7.36768L26 2.41064L28.1094 7.36768L33.4883 7.82471L29.4102 11.3755L30.6406 16.6489L26 13.8364Z" fill="#FFD200"/>
<path d="M43 12.4653L45.8125 14.1528L45.0742 10.9536L47.5703 8.77393L44.2656 8.49268L43 5.46924L41.7344 8.49268L38.4297 8.77393L40.9258 10.9536L40.1875 14.1528L43 12.4653ZM50.4883 7.82471L46.4102 11.3755L47.6406 16.6489L43 13.8364L38.3594 16.6489L39.5898 11.3755L35.5117 7.82471L40.8906 7.36768L43 2.41064L45.1094 7.36768L50.4883 7.82471Z" fill="#FFD200"/>
<path d="M60 12.4653L62.8125 14.1528L62.0742 10.9536L64.5703 8.77393L61.2656 8.49268L60 5.46924L58.7344 8.49268L55.4297 8.77393L57.9258 10.9536L57.1875 14.1528L60 12.4653ZM67.4883 7.82471L63.4102 11.3755L64.6406 16.6489L60 13.8364L55.3594 16.6489L56.5898 11.3755L52.5117 7.82471L57.8906 7.36768L60 2.41064L62.1094 7.36768L67.4883 7.82471Z" fill="#FFD200"/>
<path d="M77 12.4653L79.8125 14.1528L79.0742 10.9536L81.5703 8.77393L78.2656 8.49268L77 5.46924L75.7344 8.49268L72.4297 8.77393L74.9258 10.9536L74.1875 14.1528L77 12.4653ZM84.4883 7.82471L80.4102 11.3755L81.6406 16.6489L77 13.8364L72.3594 16.6489L73.5898 11.3755L69.5117 7.82471L74.8906 7.36768L77 2.41064L79.1094 7.36768L84.4883 7.82471Z" fill="#FFD200"/>
</svg>
