<svg width="86" height="20" viewBox="0 0 86 20" fill="none" xmlns="http://www.w3.org/2000/svg">
<path d="M9 13.3667L4.35938 16.1792L5.58984 10.9058L1.51172 7.35498L6.89062 6.89795L9 1.94092L11.1094 6.89795L16.4883 7.35498L12.4102 10.9058L13.6406 16.1792L9 13.3667Z" fill="#FFD200"/>
<path d="M26 13.3667L21.3594 16.1792L22.5898 10.9058L18.5117 7.35498L23.8906 6.89795L26 1.94092L28.1094 6.89795L33.4883 7.35498L29.4102 10.9058L30.6406 16.1792L26 13.3667Z" fill="#FFD200"/>
<path d="M43 13.3667L38.3594 16.1792L39.5898 10.9058L35.5117 7.35498L40.8906 6.89795L43 1.94092L45.1094 6.89795L50.4883 7.35498L46.4102 10.9058L47.6406 16.1792L43 13.3667Z" fill="#FFD200"/>
<path d="M60 13.3667L55.3594 16.1792L56.5898 10.9058L52.5117 7.35498L57.8906 6.89795L60 1.94092L62.1094 6.89795L67.4883 7.35498L63.4102 10.9058L64.6406 16.1792L60 13.3667Z" fill="#FFD200"/>
<path d="M77 11.9956L79.8125 13.6831L79.0742 10.4839L81.5703 8.3042L78.2656 8.02295L77 4.99951L75.7344 8.02295L72.4297 8.3042L74.9258 10.4839L74.1875 13.6831L77 11.9956ZM84.4883 7.35498L80.4102 10.9058L81.6406 16.1792L77 13.3667L72.3594 16.1792L73.5898 10.9058L69.5117 7.35498L74.8906 6.89795L77 1.94092L79.1094 6.89795L84.4883 7.35498Z" fill="#FFD200"/>
</svg>
