<svg width="73" height="17" viewBox="0 0 73 17" fill="none" xmlns="http://www.w3.org/2000/svg">
<g clip-path="url(#clip0_2015_182)">
<path d="M12.4684 1.48906C10.5423 1.51368 6.52381 1.59368 5.27458 1.91368C4.35766 2.15983 3.68073 2.89829 3.43458 3.75983C3.00996 5.42137 3.01612 8.87368 3.01612 8.87368C3.01612 8.87368 3.00996 12.326 3.43458 13.9875C3.67458 14.9106 4.41304 15.5875 5.27458 15.8337C6.92996 16.2644 13.5207 16.2521 13.5207 16.2521C13.5207 16.2521 20.1054 16.2583 21.7669 15.8337C22.69 15.5875 23.3607 14.8491 23.6069 13.9875C24.0315 12.326 24.0253 8.87368 24.0253 8.87368C24.0253 8.87368 24.093 5.42137 23.6069 3.75983C23.3607 2.83676 22.6284 2.15983 21.7669 1.91368C20.1177 1.48291 13.5269 1.48906 13.5269 1.48906C13.5269 1.48906 13.1146 1.48291 12.4746 1.48906H12.4684ZM56.9053 2.04291V15.1383H58.6161L58.8069 14.2952H58.8623C59.0469 14.6029 59.2992 14.8368 59.6069 15.0214C59.9146 15.206 60.2715 15.2675 60.6407 15.2675C61.3177 15.2675 61.8653 14.966 62.173 14.2891C62.4807 13.6121 62.6715 12.6275 62.6715 11.2737V9.79676C62.6715 8.81214 62.6038 8.01214 62.4807 7.39676C62.3577 6.84906 62.173 6.41829 61.8653 6.1106C61.5577 5.86445 61.1884 5.74752 60.6961 5.74752C60.333 5.74752 59.97 5.86445 59.6623 6.04906C59.3607 6.23368 59.0407 6.54137 58.9177 6.9106V2.04906H56.8992L56.9053 2.04291ZM26.1423 2.52291L28.5423 11.0768L28.653 15.206H30.69V11.0768L33.0715 2.52291H30.9977L30.1361 6.40599C29.89 7.56906 29.6992 8.36906 29.6377 8.86137H29.5823C29.4592 8.18445 29.2684 7.38445 29.0838 6.40599L28.2407 2.52291H26.1484H26.1423ZM44.3515 2.52291V4.1906H46.4438V15.206H48.4623V4.1906H50.5546C50.5546 4.1906 50.5546 2.52291 50.4992 2.52291H44.3515ZM11.4346 5.67368L16.9115 8.86137L11.4346 11.9937V5.66752V5.67368ZM66.45 5.72906C65.4038 5.72906 64.6715 6.09214 64.2407 6.70752C63.8161 7.31676 63.6315 8.30752 63.6315 9.72291V11.3168C63.6315 12.6706 63.8161 13.7168 64.2407 14.3321C64.6715 15.0091 65.3484 15.3106 66.3946 15.3106C67.2561 15.3106 67.8592 15.126 68.3515 14.6952C68.7823 14.2644 69.0223 13.6552 69.0223 12.7937V12.486L67.2377 12.3568C67.2377 12.9721 67.1884 13.3414 67.0654 13.5875C67.0038 13.8337 66.7577 13.9691 66.45 13.9691C66.2654 13.9691 66.0746 13.9014 65.9515 13.7783C65.8284 13.5937 65.7669 13.4152 65.7054 13.1075C65.6438 12.7998 65.65 12.3629 65.65 11.7475V11.2675L69.1638 11.2121V9.59983C69.1638 8.61522 69.1023 7.88906 68.9177 7.33522C68.7946 6.78752 68.4807 6.35676 68.1115 6.1106C67.6807 5.86445 67.2007 5.74752 66.4623 5.74752L66.45 5.72906ZM35.3792 5.78445C34.7084 5.78445 34.1423 5.89522 33.7115 6.20291C33.2807 6.44906 32.973 6.89214 32.7946 7.50752C32.61 8.12291 32.4869 8.90445 32.4869 9.88906V11.2491C32.4869 12.1721 32.5484 12.9598 32.733 13.5752C32.8561 14.1291 33.1638 14.5721 33.5946 14.8798C34.0192 15.1875 34.6469 15.2983 35.3238 15.3598C36.0561 15.3598 36.6038 15.1875 37.0346 14.9414C37.4592 14.6952 37.7053 14.2706 37.9515 13.6552C38.1915 13.0398 38.253 12.2398 38.253 11.2552V9.89522C38.253 8.9106 38.13 8.12906 37.9515 7.51368C37.7669 6.96599 37.4592 6.51676 37.0346 6.20906C36.6038 5.90137 36.0623 5.7906 35.3853 5.7906L35.3792 5.78445ZM42.8746 5.83983V13.1629C42.813 13.3475 42.6961 13.4583 42.5115 13.5814C42.3884 13.7044 42.1977 13.7721 42.013 13.7721C41.8284 13.7721 41.6561 13.7106 41.5946 13.526C41.533 13.3414 41.4838 13.0952 41.4838 12.6644V5.90137H39.3915V12.7998C39.3915 13.6614 39.5023 14.2706 39.81 14.7014C40.1115 15.1321 40.5546 15.3168 41.17 15.3168C42.0315 15.3168 42.6961 14.8921 43.1269 14.0306H43.1823L43.373 15.126H44.9669V5.90137C44.9669 5.90137 42.8746 5.90137 42.8746 5.84599V5.83983ZM53.5269 5.83983V13.1629C53.4654 13.3475 53.3484 13.4583 53.1638 13.5814C53.0407 13.7044 52.85 13.7721 52.6654 13.7721C52.4807 13.7721 52.3084 13.7106 52.2469 13.526C52.1854 13.3414 52.1177 13.0952 52.1177 12.6644V5.90137H50.0253V12.7998C50.0253 13.6614 50.1546 14.2706 50.4623 14.7014C50.77 15.1321 51.1884 15.3168 51.8038 15.3168C52.6592 15.3168 53.3484 14.8921 53.7792 14.0306H53.8346L54.0069 15.126H55.6192V5.90137C55.6192 5.90137 53.5269 5.90137 53.5269 5.84599V5.83983ZM66.3884 7.12599C66.6346 7.12599 66.7454 7.19368 66.8684 7.31676C66.9915 7.50137 67.053 7.67983 67.1146 7.98752C67.1761 8.29522 67.17 8.73214 67.17 9.34753V10.0183H65.6315V9.34753C65.6315 8.73214 65.6315 8.29522 65.6869 7.98752C65.6869 7.74137 65.7546 7.49522 65.8777 7.37214C66.0007 7.18752 66.1915 7.12599 66.3761 7.12599H66.3884ZM35.3177 7.19983C35.6254 7.19983 35.81 7.3106 35.933 7.61829C36.05 7.92599 36.1054 8.41829 36.1054 9.09522V11.9752C36.1054 12.6521 36.0561 13.1444 35.933 13.4521C35.81 13.7598 35.6254 13.8706 35.3177 13.8706C35.01 13.8706 34.8315 13.7598 34.7084 13.4521C34.5854 13.1444 34.5177 12.6521 34.5177 11.9752V9.09522C34.5177 8.41829 34.5854 7.92599 34.7084 7.61829C34.8315 7.3106 35.01 7.19983 35.3177 7.19983ZM59.7361 7.25522C59.9207 7.25522 60.1115 7.31676 60.2346 7.50137C60.3577 7.68599 60.4007 7.91368 60.4623 8.34445C60.5238 8.71368 60.5361 9.27368 60.5361 10.0121L60.5915 11.1814C60.5915 11.8583 60.5915 12.406 60.5361 12.7752C60.4746 13.1444 60.4192 13.4398 60.2346 13.5629C60.1115 13.7475 59.9269 13.8091 59.6807 13.8091C59.4961 13.8091 59.3669 13.7598 59.1823 13.6983C59.0592 13.6368 58.9423 13.5198 58.8192 13.3352V8.10445C58.8807 7.85829 58.9977 7.67368 59.1823 7.48906C59.3669 7.30445 59.5515 7.24291 59.7361 7.24291V7.25522Z" fill="white" stroke="black" stroke-opacity="0.15" stroke-width="1.23077"/>
<path d="M12.4684 1.48906C10.5423 1.51368 6.52381 1.59368 5.27458 1.91368C4.35766 2.15983 3.68073 2.89829 3.43458 3.75983C3.00996 5.42137 3.01612 8.87368 3.01612 8.87368C3.01612 8.87368 3.00996 12.326 3.43458 13.9875C3.67458 14.9106 4.41304 15.5875 5.27458 15.8337C6.92996 16.2644 13.5207 16.2521 13.5207 16.2521C13.5207 16.2521 20.1054 16.2583 21.7669 15.8337C22.69 15.5875 23.3607 14.8491 23.6069 13.9875C24.0315 12.326 24.0253 8.87368 24.0253 8.87368C24.0253 8.87368 24.093 5.42137 23.6069 3.75983C23.3607 2.83676 22.6284 2.15983 21.7669 1.91368C20.1177 1.48291 13.5269 1.48906 13.5269 1.48906C13.5269 1.48906 13.1146 1.48291 12.4746 1.48906H12.4684ZM56.9053 2.04291V15.1383H58.6161L58.8069 14.2952H58.8623C59.0469 14.6029 59.2992 14.8368 59.6069 15.0214C59.9146 15.206 60.2715 15.2675 60.6407 15.2675C61.3177 15.2675 61.8653 14.966 62.173 14.2891C62.4807 13.6121 62.6715 12.6275 62.6715 11.2737V9.79676C62.6715 8.81214 62.6038 8.01214 62.4807 7.39676C62.3577 6.84906 62.173 6.41829 61.8653 6.1106C61.5577 5.86445 61.1884 5.74752 60.6961 5.74752C60.333 5.74752 59.97 5.86445 59.6623 6.04906C59.3607 6.23368 59.0407 6.54137 58.9177 6.9106V2.04906H56.8992L56.9053 2.04291ZM26.1423 2.52291L28.5423 11.0768L28.653 15.206H30.69V11.0768L33.0715 2.52291H30.9977L30.1361 6.40599C29.89 7.56906 29.6992 8.36906 29.6377 8.86137H29.5823C29.4592 8.18445 29.2684 7.38445 29.0838 6.40599L28.2407 2.52291H26.1484H26.1423ZM44.3515 2.52291V4.1906H46.4438V15.206H48.4623V4.1906H50.5546C50.5546 4.1906 50.5546 2.52291 50.4992 2.52291H44.3515ZM11.4346 5.67368L16.9115 8.86137L11.4346 11.9937V5.66752V5.67368ZM66.45 5.72906C65.4038 5.72906 64.6715 6.09214 64.2407 6.70752C63.8161 7.31676 63.6315 8.30752 63.6315 9.72291V11.3168C63.6315 12.6706 63.8161 13.7168 64.2407 14.3321C64.6715 15.0091 65.3484 15.3106 66.3946 15.3106C67.2561 15.3106 67.8592 15.126 68.3515 14.6952C68.7823 14.2644 69.0223 13.6552 69.0223 12.7937V12.486L67.2377 12.3568C67.2377 12.9721 67.1884 13.3414 67.0654 13.5875C67.0038 13.8337 66.7577 13.9691 66.45 13.9691C66.2654 13.9691 66.0746 13.9014 65.9515 13.7783C65.8284 13.5937 65.7669 13.4152 65.7054 13.1075C65.6438 12.7998 65.65 12.3629 65.65 11.7475V11.2675L69.1638 11.2121V9.59983C69.1638 8.61522 69.1023 7.88906 68.9177 7.33522C68.7946 6.78752 68.4807 6.35676 68.1115 6.1106C67.6807 5.86445 67.2007 5.74752 66.4623 5.74752L66.45 5.72906ZM35.3792 5.78445C34.7084 5.78445 34.1423 5.89522 33.7115 6.20291C33.2807 6.44906 32.973 6.89214 32.7946 7.50752C32.61 8.12291 32.4869 8.90445 32.4869 9.88906V11.2491C32.4869 12.1721 32.5484 12.9598 32.733 13.5752C32.8561 14.1291 33.1638 14.5721 33.5946 14.8798C34.0192 15.1875 34.6469 15.2983 35.3238 15.3598C36.0561 15.3598 36.6038 15.1875 37.0346 14.9414C37.4592 14.6952 37.7053 14.2706 37.9515 13.6552C38.1915 13.0398 38.253 12.2398 38.253 11.2552V9.89522C38.253 8.9106 38.13 8.12906 37.9515 7.51368C37.7669 6.96599 37.4592 6.51676 37.0346 6.20906C36.6038 5.90137 36.0623 5.7906 35.3853 5.7906L35.3792 5.78445ZM42.8746 5.83983V13.1629C42.813 13.3475 42.6961 13.4583 42.5115 13.5814C42.3884 13.7044 42.1977 13.7721 42.013 13.7721C41.8284 13.7721 41.6561 13.7106 41.5946 13.526C41.533 13.3414 41.4838 13.0952 41.4838 12.6644V5.90137H39.3915V12.7998C39.3915 13.6614 39.5023 14.2706 39.81 14.7014C40.1115 15.1321 40.5546 15.3168 41.17 15.3168C42.0315 15.3168 42.6961 14.8921 43.1269 14.0306H43.1823L43.373 15.126H44.9669V5.90137C44.9669 5.90137 42.8746 5.90137 42.8746 5.84599V5.83983ZM53.5269 5.83983V13.1629C53.4654 13.3475 53.3484 13.4583 53.1638 13.5814C53.0407 13.7044 52.85 13.7721 52.6654 13.7721C52.4807 13.7721 52.3084 13.7106 52.2469 13.526C52.1854 13.3414 52.1177 13.0952 52.1177 12.6644V5.90137H50.0253V12.7998C50.0253 13.6614 50.1546 14.2706 50.4623 14.7014C50.77 15.1321 51.1884 15.3168 51.8038 15.3168C52.6592 15.3168 53.3484 14.8921 53.7792 14.0306H53.8346L54.0069 15.126H55.6192V5.90137C55.6192 5.90137 53.5269 5.90137 53.5269 5.84599V5.83983ZM66.3884 7.12599C66.6346 7.12599 66.7454 7.19368 66.8684 7.31676C66.9915 7.50137 67.053 7.67983 67.1146 7.98752C67.1761 8.29522 67.17 8.73214 67.17 9.34753V10.0183H65.6315V9.34753C65.6315 8.73214 65.6315 8.29522 65.6869 7.98752C65.6869 7.74137 65.7546 7.49522 65.8777 7.37214C66.0007 7.18752 66.1915 7.12599 66.3761 7.12599H66.3884ZM35.3177 7.19983C35.6254 7.19983 35.81 7.3106 35.933 7.61829C36.05 7.92599 36.1054 8.41829 36.1054 9.09522V11.9752C36.1054 12.6521 36.0561 13.1444 35.933 13.4521C35.81 13.7598 35.6254 13.8706 35.3177 13.8706C35.01 13.8706 34.8315 13.7598 34.7084 13.4521C34.5854 13.1444 34.5177 12.6521 34.5177 11.9752V9.09522C34.5177 8.41829 34.5854 7.92599 34.7084 7.61829C34.8315 7.3106 35.01 7.19983 35.3177 7.19983ZM59.7361 7.25522C59.9207 7.25522 60.1115 7.31676 60.2346 7.50137C60.3577 7.68599 60.4007 7.91368 60.4623 8.34445C60.5238 8.71368 60.5361 9.27368 60.5361 10.0121L60.5915 11.1814C60.5915 11.8583 60.5915 12.406 60.5361 12.7752C60.4746 13.1444 60.4192 13.4398 60.2346 13.5629C60.1115 13.7475 59.9269 13.8091 59.6807 13.8091C59.4961 13.8091 59.3669 13.7598 59.1823 13.6983C59.0592 13.6368 58.9423 13.5198 58.8192 13.3352V8.10445C58.8807 7.85829 58.9977 7.67368 59.1823 7.48906C59.3669 7.30445 59.5515 7.24291 59.7361 7.24291V7.25522Z" fill="white"/>
</g>
<defs>
<clipPath id="clip0_2015_182">
<rect width="72" height="16" fill="white" transform="translate(0.0500488 0.879883)"/>
</clipPath>
</defs>
</svg>
