<svg width="68" height="17" viewBox="0 0 68 17" fill="none" xmlns="http://www.w3.org/2000/svg">
<g clip-path="url(#clip0_2015_64)">
<path d="M17.7265 5.37439C17.9493 4.53987 17.8572 3.90136 17.4502 3.45886C17.0433 3.01636 16.3319 2.79362 15.3161 2.79065H11.4236L9.07715 11.5947H10.9617L11.9107 8.03088H13.1553C13.383 8.01947 13.6098 8.06596 13.8147 8.16601C13.8978 8.21801 13.9671 8.28931 14.0168 8.37385C14.0664 8.45839 14.0949 8.55366 14.0998 8.65157L14.4399 11.5947H16.4597L16.13 8.86094C16.0646 8.25065 15.7839 7.8913 15.2968 7.7829C15.8862 7.62032 16.4241 7.3095 16.8592 6.88008C17.2796 6.46622 17.5795 5.9457 17.7265 5.37439ZM15.9221 5.40557C15.8408 5.76652 15.6197 6.08052 15.3072 6.27869C15.0102 6.46579 14.5765 6.55785 14.0256 6.55785H12.2761L12.8909 4.25774H14.6419C15.1914 4.25774 15.5686 4.35129 15.7765 4.5369C15.9844 4.72251 16.029 5.01652 15.9221 5.40557Z" fill="#F8F9FB"/>
<path d="M23.1684 5.3016L22.9293 6.19255C22.8297 5.87413 22.6188 5.60217 22.3352 5.42634C22.0045 5.22786 21.6232 5.12983 21.2377 5.14421C20.697 5.14435 20.1656 5.28562 19.6962 5.55404C19.1853 5.84701 18.744 6.24722 18.4026 6.72711C18.0265 7.24597 17.7509 7.83072 17.5903 8.45109C17.4217 9.00318 17.3861 9.58729 17.4863 10.1558C17.5628 10.6048 17.803 11.0095 18.1605 11.2918C18.5492 11.5696 19.0199 11.7087 19.4972 11.6867C19.9233 11.6877 20.3446 11.5965 20.7322 11.4194C21.1198 11.2423 21.4645 10.9835 21.7427 10.6607L21.4961 11.5902H23.3332L25.0085 5.3016H23.1684ZM22.3337 8.41991C22.2202 8.93194 21.9673 9.40265 21.6031 9.78008C21.4462 9.93359 21.2604 10.0544 21.0564 10.1355C20.8525 10.2166 20.6344 10.2563 20.415 10.2523C19.9472 10.2523 19.6323 10.1038 19.463 9.7875C19.2937 9.47122 19.2892 9.0302 19.4437 8.45109C19.5612 7.93448 19.818 7.45994 20.1863 7.07904C20.3436 6.92091 20.5309 6.79573 20.7372 6.71083C20.9435 6.62593 21.1646 6.583 21.3877 6.58456C21.8451 6.58456 22.157 6.74345 22.3174 7.05973C22.4778 7.37602 22.4941 7.82297 22.3367 8.41842L22.3337 8.41991Z" fill="#F8F9FB"/>
<path d="M31.5617 5.30627H26.2702L25.8796 6.77335H28.9598L24.9098 10.306L24.5638 11.6023H30.029L30.4196 10.1352H27.1152L31.232 6.5521L31.5617 5.30627Z" fill="#F8F9FB"/>
<path d="M37.3485 5.5362C36.8572 5.25544 36.2967 5.11857 35.7312 5.14121C35.0934 5.13569 34.4622 5.27054 33.8823 5.5362C33.3182 5.79916 32.8227 6.18895 32.4343 6.67512C32.0286 7.18509 31.7355 7.77516 31.5744 8.40652C31.4011 8.96802 31.3795 9.5654 31.512 10.1379C31.6335 10.6131 31.9356 11.0223 32.3541 11.2783C32.7798 11.5407 33.3244 11.6718 33.9877 11.6718C34.6187 11.6773 35.2431 11.543 35.8159 11.2783C36.3782 11.0153 36.8715 10.6248 37.2565 10.1379C37.663 9.62828 37.9566 9.03812 38.1178 8.40652C38.2915 7.84503 38.3125 7.24742 38.1787 6.67512C38.0618 6.20146 37.7637 5.79255 37.3485 5.5362ZM36.2763 8.40355C36.1114 9.02127 35.8694 9.48456 35.5426 9.79045C35.2274 10.0908 34.8063 10.2546 34.3709 10.2463C33.4105 10.2463 33.0942 9.63206 33.4219 8.40355C33.5833 7.79375 33.8308 7.33392 34.1644 7.02407C34.4837 6.71867 34.9107 6.55164 35.3525 6.5593C35.81 6.5593 36.1218 6.70779 36.2822 7.02407C36.4426 7.34036 36.4382 7.79325 36.2763 8.40355Z" fill="#F8F9FB"/>
<path d="M57.3535 5.30183L57.1144 6.19277C57.0147 5.87436 56.8039 5.6024 56.5203 5.42656C56.1902 5.22628 55.8087 5.12668 55.4228 5.13997C54.8811 5.14115 54.3492 5.28397 53.8798 5.55426C53.3684 5.84717 52.9266 6.24738 52.5847 6.72734C52.2091 7.24653 51.9337 7.83117 51.7724 8.45131C51.6053 9.00366 51.5697 9.58742 51.6684 10.156C51.7449 10.605 51.9851 11.0097 52.3427 11.2919C52.7364 11.572 53.213 11.7112 53.6956 11.6869C54.1123 11.6853 54.5238 11.5952 54.903 11.4226C55.2943 11.247 55.6417 10.9869 55.9203 10.6608L55.6738 11.5904H57.5109L59.1876 5.30183H57.3535ZM56.5144 8.42013C56.4013 8.93203 56.1489 9.40274 55.7852 9.7803C55.628 9.93334 55.4421 10.0538 55.2382 10.1349C55.0343 10.2159 54.8165 10.2559 54.5971 10.2525C54.1278 10.2525 53.8129 10.104 53.6436 9.78772C53.4743 9.47144 53.4713 9.03042 53.6243 8.45131C53.7424 7.93494 53.9992 7.46057 54.3669 7.07926C54.5246 6.92122 54.7122 6.79611 54.9187 6.71123C55.1252 6.62634 55.3465 6.58336 55.5698 6.58478C56.0272 6.58478 56.3371 6.74317 56.4995 7.05995C56.6718 7.36733 56.6762 7.82319 56.5144 8.41864V8.42013Z" fill="#F8F9FB"/>
<path d="M43.8887 6.99463L44.358 5.28253C44.1601 5.19295 43.9439 5.15075 43.7268 5.15928C43.3023 5.15977 42.8851 5.26918 42.515 5.47705C42.1775 5.66193 41.8845 5.91838 41.6566 6.22842L41.8986 5.30629H40.063L38.373 11.5949H40.2353L41.11 8.31174C41.2126 7.87365 41.4524 7.47979 41.7947 7.18766C42.1466 6.91279 42.584 6.77035 43.0303 6.78525C43.3292 6.784 43.6239 6.85588 43.8887 6.99463Z" fill="#F8F9FB"/>
<path d="M50.3794 5.56775C49.9994 5.27739 49.5295 5.12971 49.0517 5.15049C48.5868 5.15101 48.1286 5.26196 47.715 5.4742C47.3006 5.67795 46.9433 5.98157 46.6755 6.35772L46.6829 6.31465L46.9962 5.3064H45.1695L44.7032 7.05414C44.7032 7.07344 44.6928 7.09423 44.6884 7.11353L42.7726 14.3154H44.6438L45.6106 10.6863C45.7031 11.0065 45.916 11.2784 46.2047 11.445C46.5397 11.6375 46.922 11.7322 47.3081 11.7183C47.8506 11.7197 48.3847 11.5849 48.8616 11.3262C49.3691 11.0466 49.8071 10.6563 50.1432 10.1844C50.513 9.66806 50.7835 9.08747 50.9407 8.47222C51.1105 7.91186 51.1491 7.31997 51.0536 6.74231C50.9754 6.28317 50.7364 5.86682 50.3794 5.56775ZM49.0561 8.44252C48.942 8.94645 48.6906 9.40898 48.3299 9.77894C48.0106 10.0843 47.5835 10.2508 47.1418 10.2423C46.6814 10.2423 46.3695 10.0834 46.2047 9.77003C46.0398 9.45671 46.0309 9.0053 46.1928 8.40985C46.3085 7.89388 46.5656 7.42032 46.9354 7.04226C47.0924 6.88888 47.2782 6.76797 47.4821 6.68644C47.686 6.60491 47.9039 6.56435 48.1235 6.56709C48.569 6.56709 48.8794 6.7334 49.0413 7.06156C49.2031 7.38973 49.2135 7.8545 49.0561 8.44252Z" fill="#F8F9FB"/>
<path d="M67 5.0968H65.0693L64.7723 5.71749C64.7486 5.74868 64.7263 5.77986 64.6995 5.81847L64.6684 5.86895L62.2922 9.19217L61.7991 5.30618H59.8506L60.8412 11.2666L58.6506 14.3151H60.5263L61.0684 13.5415C61.0848 13.5177 61.1011 13.4984 61.1159 13.4732L61.7501 12.5689L61.7709 12.5451L64.603 8.50466L67 5.0968Z" fill="#F8F9FB"/>
<path d="M4.30678 3.79596L3.74243 5.85107L6.92654 3.78556L4.84736 11.5947H6.95773L10.0304 0.0599365L4.30678 3.79596Z" fill="#F8F9FB"/>
<path d="M0.876224 8.30994L0 11.5945H4.32914L6.10089 4.91248L0.876224 8.30994Z" fill="#F8F9FB"/>
</g>
<defs>
<clipPath id="clip0_2015_64">
<rect width="68" height="16" fill="white" transform="translate(0 0.0600586)"/>
</clipPath>
</defs>
</svg>
