<svg width="36" height="37" viewBox="0 0 36 37" fill="none" xmlns="http://www.w3.org/2000/svg">
<path d="M20.2 15.0699V10.6199L27.99 18.4099L20.2 26.1999V21.6399C16.27 21.5699 12.1 22.6899 9.33997 25.6399C8.79997 26.0099 7.59997 28.1699 8.11997 26.5299C9.07997 22.1999 11.8 18.0599 15.98 16.2599C17.31 15.6599 18.74 15.2799 20.19 15.0699H20.2Z" fill="white" stroke="black" stroke-opacity="0.15" stroke-width="2"/>
<path d="M20.2 15.0699V10.6199L27.99 18.4099L20.2 26.1999V21.6399C16.27 21.5699 12.1 22.6899 9.33997 25.6399C8.79997 26.0099 7.59997 28.1699 8.11997 26.5299C9.07997 22.1999 11.8 18.0599 15.98 16.2599C17.31 15.6599 18.74 15.2799 20.19 15.0699H20.2Z" fill="white"/>
</svg>
